<svg xmlns="http://www.w3.org/2000/svg" version="1.1" xmlns:xlink="http://www.w3.org/1999/xlink" xmlns:svgjs="http://svgjs.dev/svgjs" viewBox="0 0 14.40448355573407 14.107956583777545"><g transform="matrix(1,0,0,1,1.1879412407576613,11.855015343019884)"><g><path d=" M 1.038 0.00749999999999984 L 1.038 1.0574999999999999 L 0.975 1.0574999999999999 L 0.2595 0.14549999999999985 L 0.2595 1.0574999999999999 L 0.183 1.0574999999999999 L 0.183 0.00749999999999984 L 0.2475 0.00749999999999984 L 0.9615 0.9194999999999999 L 0.9615 0.00749999999999984 L 1.038 0.00749999999999984 M 2.1435388183593753 0.9884999999999999 L 2.1435388183593753 1.0574999999999999 L 1.4190388183593752 1.0574999999999999 L 1.4190388183593752 0.00749999999999984 L 2.1210388183593754 0.00749999999999984 L 2.1210388183593754 0.0764999999999999 L 1.4955388183593752 0.0764999999999999 L 1.4955388183593752 0.4904999999999998 L 2.055038818359375 0.4904999999999998 L 2.055038818359375 0.5579999999999998 L 1.4955388183593752 0.5579999999999998 L 1.4955388183593752 0.9884999999999999 L 2.1435388183593753 0.9884999999999999 M 3.082590087890625 1.0574999999999999 L 2.7210900878906252 0.5714999999999999 L 2.3610900878906254 1.0574999999999999 L 2.271090087890625 1.0574999999999999 L 2.6745900878906252 0.5159999999999999 L 2.2995900878906252 0.00749999999999984 L 2.389590087890625 0.00749999999999984 L 2.7240900878906253 0.45899999999999985 L 3.058590087890625 0.00749999999999984 L 3.1440900878906253 0.00749999999999984 L 2.7690900878906253 0.5144999999999998 L 3.172590087890625 1.0574999999999999 L 3.082590087890625 1.0574999999999999 M 3.4883686523437505 0.9494999999999999 Q 3.3781186523437503 0.8339999999999999 3.3781186523437503 0.6119999999999999 L 3.3781186523437503 0.00749999999999984 L 3.4546186523437505 0.00749999999999984 L 3.4546186523437505 0.6089999999999999 Q 3.4546186523437505 0.8024999999999999 3.5431186523437503 0.8984999999999999 Q 3.63161865234375 0.9944999999999999 3.7996186523437503 0.9944999999999999 Q 3.9661186523437504 0.9944999999999999 4.05461865234375 0.8984999999999999 Q 4.14311865234375 0.8024999999999999 4.14311865234375 0.6089999999999999 L 4.14311865234375 0.00749999999999984 L 4.21961865234375 0.00749999999999984 L 4.21961865234375 0.6119999999999999 Q 4.21961865234375 0.8339999999999999 4.1086186523437505 0.9494999999999999 Q 3.9976186523437502 1.065 3.7981186523437502 1.065 Q 3.5986186523437502 1.065 3.4883686523437505 0.9494999999999999 M 4.647913330078126 1.0252499999999998 Q 4.543663330078125 0.9854999999999998 4.485163330078126 0.9224999999999999 L 4.519663330078125 0.8654999999999999 Q 4.575163330078126 0.9239999999999999 4.668913330078126 0.9607499999999999 Q 4.762663330078126 0.9974999999999998 4.866163330078125 0.9974999999999998 Q 5.016163330078125 0.9974999999999998 5.092663330078126 0.9404999999999999 Q 5.169163330078126 0.8834999999999998 5.169163330078126 0.7919999999999998 Q 5.169163330078126 0.7214999999999998 5.128663330078125 0.6794999999999999 Q 5.0881633300781255 0.6375 5.028163330078126 0.6149999999999999 Q 4.968163330078125 0.5924999999999998 4.866163330078125 0.5684999999999999 Q 4.750663330078125 0.5399999999999999 4.680913330078125 0.5129999999999999 Q 4.611163330078125 0.4859999999999999 4.562413330078125 0.42974999999999985 Q 4.513663330078126 0.37349999999999983 4.513663330078126 0.2789999999999999 Q 4.513663330078126 0.2024999999999999 4.554163330078126 0.13874999999999982 Q 4.594663330078125 0.07499999999999984 4.677913330078125 0.03749999999999987 Q 4.7611633300781255 -2.220446049250313e-16 4.885663330078126 -2.220446049250313e-16 Q 4.9726633300781256 -2.220446049250313e-16 5.056663330078125 0.025499999999999856 Q 5.140663330078126 0.050999999999999934 5.202163330078125 0.09449999999999992 L 5.173663330078125 0.15599999999999992 Q 5.1106633300781255 0.11249999999999982 5.034913330078125 0.08999999999999986 Q 4.959163330078125 0.0674999999999999 4.885663330078126 0.0674999999999999 Q 4.740163330078126 0.0674999999999999 4.6651633300781254 0.1259999999999999 Q 4.590163330078125 0.1844999999999999 4.590163330078125 0.27749999999999986 Q 4.590163330078125 0.34799999999999986 4.630663330078126 0.3899999999999999 Q 4.671163330078126 0.43199999999999983 4.731163330078125 0.4544999999999999 Q 4.791163330078126 0.47699999999999987 4.894663330078125 0.5024999999999998 Q 5.010163330078125 0.5309999999999999 5.079163330078125 0.5579999999999998 Q 5.148163330078125 0.5849999999999999 5.196913330078125 0.6397499999999998 Q 5.245663330078125 0.6944999999999999 5.245663330078125 0.7874999999999999 Q 5.245663330078125 0.8639999999999999 5.2044133300781255 0.9269999999999998 Q 5.163163330078126 0.9899999999999999 5.077663330078126 1.0274999999999999 Q 4.992163330078125 1.065 4.867663330078125 1.065 Q 4.752163330078125 1.065 4.647913330078126 1.0252499999999998 M 5.4586494140625 0.6209999999999999 L 5.8441494140625005 0.6209999999999999 L 5.8441494140625005 0.6884999999999999 L 5.4586494140625 0.6884999999999999 L 5.4586494140625 0.6209999999999999 M 6.898579833984375 0.5369999999999999 L 6.972079833984375 0.5369999999999999 L 6.972079833984375 0.9299999999999999 Q 6.903079833984375 0.9959999999999999 6.804829833984375 1.0305 Q 6.7065798339843745 1.065 6.597079833984375 1.065 Q 6.441079833984375 1.065 6.315829833984375 0.9959999999999999 Q 6.1905798339843745 0.9269999999999998 6.1193298339843745 0.8054999999999999 Q 6.048079833984374 0.6839999999999999 6.048079833984374 0.5324999999999999 Q 6.048079833984374 0.3809999999999999 6.1193298339843745 0.25949999999999984 Q 6.1905798339843745 0.1379999999999999 6.315829833984375 0.06899999999999984 Q 6.441079833984375 -2.220446049250313e-16 6.598579833984375 -2.220446049250313e-16 Q 6.714079833984375 -2.220446049250313e-16 6.810829833984375 0.03674999999999984 Q 6.907579833984375 0.0734999999999999 6.976579833984375 0.1439999999999999 L 6.928579833984375 0.19499999999999984 Q 6.862579833984375 0.1289999999999999 6.780829833984375 0.0997499999999999 Q 6.699079833984375 0.0704999999999999 6.600079833984375 0.0704999999999999 Q 6.465079833984375 0.0704999999999999 6.356329833984375 0.13049999999999984 Q 6.247579833984375 0.1904999999999999 6.186079833984375 0.2962499999999999 Q 6.124579833984375 0.4019999999999999 6.124579833984375 0.5324999999999999 Q 6.124579833984375 0.6614999999999999 6.186829833984375 0.7672499999999999 Q 6.249079833984375 0.8729999999999999 6.357079833984375 0.9337499999999999 Q 6.465079833984375 0.9944999999999999 6.600079833984375 0.9944999999999999 Q 6.780079833984375 0.9944999999999999 6.898579833984375 0.8984999999999999 L 6.898579833984375 0.5369999999999999 M 8.052095214843751 1.0574999999999999 L 7.801595214843751 0.7064999999999999 Q 7.74609521484375 0.7139999999999999 7.69959521484375 0.7139999999999999 L 7.3995952148437505 0.7139999999999999 L 7.3995952148437505 1.0574999999999999 L 7.32309521484375 1.0574999999999999 L 7.32309521484375 0.00749999999999984 L 7.69959521484375 0.00749999999999984 Q 7.897595214843751 0.00749999999999984 8.01009521484375 0.10124999999999984 Q 8.12259521484375 0.19499999999999984 8.12259521484375 0.3614999999999998 Q 8.12259521484375 0.4859999999999999 8.05884521484375 0.5707499999999999 Q 7.995095214843751 0.6554999999999999 7.876595214843751 0.69 L 8.139095214843751 1.0574999999999999 L 8.052095214843751 1.0574999999999999 M 7.69959521484375 0.6464999999999999 Q 7.8675952148437505 0.6464999999999999 7.95609521484375 0.5722499999999999 Q 8.044595214843751 0.4979999999999999 8.044595214843751 0.3614999999999998 Q 8.044595214843751 0.22499999999999987 7.95609521484375 0.15074999999999983 Q 7.8675952148437505 0.0764999999999999 7.69959521484375 0.0764999999999999 L 7.3995952148437505 0.0764999999999999 L 7.3995952148437505 0.6464999999999999 L 7.69959521484375 0.6464999999999999 M 8.584551269531252 0.9952499999999999 Q 8.46005126953125 0.9254999999999999 8.388801269531251 0.8039999999999998 Q 8.31755126953125 0.6824999999999999 8.31755126953125 0.5324999999999999 Q 8.31755126953125 0.38249999999999984 8.388801269531251 0.2609999999999999 Q 8.46005126953125 0.13949999999999985 8.584551269531252 0.06974999999999987 Q 8.709051269531251 -2.220446049250313e-16 8.863551269531252 -2.220446049250313e-16 Q 9.01805126953125 -2.220446049250313e-16 9.142551269531252 0.06899999999999984 Q 9.267051269531251 0.1379999999999999 9.33830126953125 0.25949999999999984 Q 9.409551269531251 0.3809999999999999 9.409551269531251 0.5324999999999999 Q 9.409551269531251 0.6839999999999999 9.33830126953125 0.8054999999999999 Q 9.267051269531251 0.9269999999999998 9.142551269531252 0.9959999999999999 Q 9.01805126953125 1.065 8.863551269531252 1.065 Q 8.709051269531251 1.065 8.584551269531252 0.9952499999999999 M 9.102051269531252 0.9344999999999999 Q 9.20855126953125 0.8744999999999998 9.270051269531251 0.7687499999999998 Q 9.331551269531252 0.6629999999999998 9.331551269531252 0.5324999999999999 Q 9.331551269531252 0.4019999999999999 9.270051269531251 0.2962499999999999 Q 9.20855126953125 0.1904999999999999 9.102051269531252 0.13049999999999984 Q 8.995551269531251 0.0704999999999999 8.863551269531252 0.0704999999999999 Q 8.73155126953125 0.0704999999999999 8.624301269531252 0.13049999999999984 Q 8.517051269531251 0.1904999999999999 8.45555126953125 0.2962499999999999 Q 8.394051269531252 0.4019999999999999 8.394051269531252 0.5324999999999999 Q 8.394051269531252 0.6629999999999998 8.45555126953125 0.7687499999999998 Q 8.517051269531251 0.8744999999999998 8.624301269531252 0.9344999999999999 Q 8.73155126953125 0.9944999999999999 8.863551269531252 0.9944999999999999 Q 8.995551269531251 0.9944999999999999 9.102051269531252 0.9344999999999999 M 11.062576171875001 0.00749999999999984 L 10.707076171875002 1.0574999999999999 L 10.626076171875003 1.0574999999999999 L 10.300576171875 0.11549999999999983 L 9.973576171875001 1.0574999999999999 L 9.892576171875001 1.0574999999999999 L 9.535576171875002 0.00749999999999984 L 9.616576171875002 0.00749999999999984 L 9.936076171875001 0.9524999999999999 L 10.264576171875001 0.00749999999999984 L 10.338076171875002 0.00749999999999984 L 10.665076171875002 0.9539999999999998 L 10.987576171875002 0.00749999999999984 L 11.062576171875001 0.00749999999999984 M 11.354337890625002 1.0252499999999998 Q 11.250087890625002 0.9854999999999998 11.191587890625001 0.9224999999999999 L 11.226087890625003 0.8654999999999999 Q 11.281587890625001 0.9239999999999999 11.375337890625001 0.9607499999999999 Q 11.469087890625001 0.9974999999999998 11.572587890625002 0.9974999999999998 Q 11.722587890625002 0.9974999999999998 11.799087890625001 0.9404999999999999 Q 11.875587890625003 0.8834999999999998 11.875587890625003 0.7919999999999998 Q 11.875587890625003 0.7214999999999998 11.835087890625003 0.6794999999999999 Q 11.794587890625003 0.6375 11.734587890625003 0.6149999999999999 Q 11.674587890625002 0.5924999999999998 11.572587890625002 0.5684999999999999 Q 11.457087890625003 0.5399999999999999 11.387337890625002 0.5129999999999999 Q 11.317587890625003 0.4859999999999999 11.268837890625003 0.42974999999999985 Q 11.220087890625003 0.37349999999999983 11.220087890625003 0.2789999999999999 Q 11.220087890625003 0.2024999999999999 11.260587890625002 0.13874999999999982 Q 11.301087890625002 0.07499999999999984 11.384337890625002 0.03749999999999987 Q 11.467587890625001 -2.220446049250313e-16 11.592087890625002 -2.220446049250313e-16 Q 11.679087890625002 -2.220446049250313e-16 11.763087890625002 0.025499999999999856 Q 11.847087890625001 0.050999999999999934 11.908587890625002 0.09449999999999992 L 11.880087890625003 0.15599999999999992 Q 11.817087890625002 0.11249999999999982 11.741337890625003 0.08999999999999986 Q 11.665587890625002 0.0674999999999999 11.592087890625002 0.0674999999999999 Q 11.446587890625002 0.0674999999999999 11.371587890625003 0.1259999999999999 Q 11.296587890625002 0.1844999999999999 11.296587890625002 0.27749999999999986 Q 11.296587890625002 0.34799999999999986 11.337087890625002 0.3899999999999999 Q 11.377587890625001 0.43199999999999983 11.437587890625002 0.4544999999999999 Q 11.497587890625002 0.47699999999999987 11.601087890625003 0.5024999999999998 Q 11.716587890625002 0.5309999999999999 11.785587890625003 0.5579999999999998 Q 11.854587890625002 0.5849999999999999 11.903337890625002 0.6397499999999998 Q 11.952087890625002 0.6944999999999999 11.952087890625002 0.7874999999999999 Q 11.952087890625002 0.8639999999999999 11.910837890625002 0.9269999999999998 Q 11.869587890625002 0.9899999999999999 11.784087890625003 1.0274999999999999 Q 11.698587890625003 1.065 11.574087890625002 1.065 Q 11.458587890625003 1.065 11.354337890625002 1.0252499999999998" fill="#000000" fill-rule="nonzero"></path></g><g></g><g clip-path="url(&quot;#SvgjsClipPath1001&quot;)"><g clip-path="url(&quot;#a&quot;)"><path d=" M 8.681095006972267 -3.186201558714501 L 8.538418355555526 -3.3691633822959677 C 7.677742437744544 -4.471130695885259 6.090254872128286 -4.727529031225343 4.924083065401462 -3.9532983786845026 L 4.718041195267286 -3.816496648208452 L 1.036983588715392 -9.05314939241286 L 1.451585152244036 -9.341859792926735 L 4.854423288533287 -4.500924937798755 C 6.148164807115081 -5.221442027453293 7.793562307718133 -4.952454575811733 8.787682858324771 -3.85636218316313 L 9.19640950091273 -4.121572899914247 L 10.710880191980419 -5.127443292402264 L 10.991617485503358 -4.708225719563078 Z" fill="#3361e1" transform="matrix(1,0,0,1,0,0)" fill-rule="nonzero"></path></g><g clip-path="url(&quot;#a&quot;)"><path d=" M 8.681095006972267 -3.186201558714501 L 8.538418355555526 -3.3691633822959677 C 7.677742437744544 -4.471130695885259 6.090254872128286 -4.727529031225343 4.924083065401462 -3.9532983786845026 L 4.718041195267286 -3.816496648208452 L 1.036983588715392 -9.05314939241286 L 1.451585152244036 -9.341859792926735 L 4.854423288533287 -4.500924937798755 C 6.148164807115081 -5.221442027453293 7.793562307718133 -4.952454575811733 8.787682858324771 -3.85636218316313 L 9.19640950091273 -4.121572899914247 L 10.710880191980419 -5.127443292402264 L 10.991617485503358 -4.708225719563078 Z" fill="none" transform="matrix(1,0,0,1,0,0)" fill-rule="nonzero" stroke-dasharray="none" stroke-miterlimit="10" stroke-linejoin="miter" stroke-linecap="butt" stroke-width="0.18883674452215599" stroke="#3361e1"></path></g><g clip-path="url(&quot;#a&quot;)"><path d=" M 6.557730724123134 -0.3444183722610781 C 5.5882976380154785 -0.34557452505752906 4.802705152863534 -1.131167010209472 4.801549000067084 -2.1006000963171303 C 4.802473940214265 -3.0701970568668173 5.588134012233086 -3.856044861280739 6.557730724122741 -3.857201457583227 C 7.527327436012788 -3.8560448612809575 8.312987508031785 -3.0701970568672126 8.313912448179185 -2.1006000963171303 C 8.31275629538278 -1.131167010209559 7.527163810230876 -0.34557452505757524 6.557730724123219 -0.3444183722610781 M 6.557730724123134 -3.3553153543643432 C 5.865222151001816 -3.354390196521363 5.3041286141282855 -2.7931089401641005 5.303435103285969 -2.1006000963171285 C 5.304359772263369 -1.408255125289232 5.86538575309523 -0.8472291444573656 6.557730724123131 -0.8463044754799647 C 7.250075695151034 -0.8472291444573639 7.811101675982898 -1.4082551252892284 7.812026344960299 -2.1006000963171285 C 7.811332834117963 -2.793108940164135 7.250239297244418 -3.354390196521382 6.5577307241230995 -3.3553153543643432" fill="#3361e1" transform="matrix(1,0,0,1,0,0)" fill-rule="nonzero"></path></g><g clip-path="url(&quot;#a&quot;)"><path d=" M 6.557730724123134 -0.3444183722610781 C 5.5882976380154785 -0.34557452505752906 4.802705152863534 -1.131167010209472 4.801549000067084 -2.1006000963171303 C 4.802473940214265 -3.0701970568668173 5.588134012233086 -3.856044861280739 6.557730724122741 -3.857201457583227 C 7.527327436012788 -3.8560448612809575 8.312987508031785 -3.0701970568672126 8.313912448179185 -2.1006000963171303 C 8.31275629538278 -1.131167010209559 7.527163810230876 -0.34557452505757524 6.557730724123219 -0.3444183722610781 Z M 6.557730724123134 -3.3553153543643432 C 5.865222151001816 -3.354390196521363 5.3041286141282855 -2.7931089401641005 5.303435103285969 -2.1006000963171285 C 5.304359772263369 -1.408255125289232 5.86538575309523 -0.8472291444573656 6.557730724123131 -0.8463044754799647 C 7.250075695151034 -0.8472291444573639 7.811101675982898 -1.4082551252892284 7.812026344960299 -2.1006000963171285 C 7.811332834117963 -2.793108940164135 7.250239297244418 -3.354390196521382 6.5577307241230995 -3.3553153543643432 Z" fill="none" transform="matrix(1,0,0,1,0,0)" fill-rule="nonzero" stroke-dasharray="none" stroke-miterlimit="10" stroke-linejoin="miter" stroke-linecap="butt" stroke-width="0.18883674452215599" stroke="#3361e1"></path></g><g clip-path="url(&quot;#SvgjsClipPath1000&quot;)"><path d=" M 2.9238873503763934 -7.755649903065384 L 4.591525623112055 -5.5353494246948785 L 4.99521661917942 -5.837488215930327 L 3.6368509702500442 -7.645285316822435 L 6.7480412455550765 -9.864326883562793 L 9.737117092735783 -5.5030373595210875 L 8.436241741583153 -4.637325795189515 L 8.71613976068599 -4.218108222350328 L 10.441687968408445 -5.366655266255085 L 6.873932408569847 -10.572254856915853 Z" fill="#3361e1" transform="matrix(1,0,0,1,0,0)" fill-rule="nonzero"></path></g><g clip-path="url(&quot;#b&quot;)"><path d=" M 8.716344532616402 -4.21850909543562 L 8.436446513513562 -4.637307031064758 L 9.737321864666193 -5.50301859539633 L 6.748246017485487 -9.864308119438036 L 3.637055742180455 -7.645686189907728 L 4.99542139110983 -5.83788908901562 L 4.591730395042466 -5.535750297780172 L 2.9236724850967555 -7.756050776150677 L 6.8741371805002585 -10.572655730001147 L 10.441892740338858 -5.367056139340377 Z" fill="none" transform="matrix(1,0,0,1,0,0)" fill-rule="nonzero" stroke-dasharray="none" stroke-miterlimit="10" stroke-linejoin="miter" stroke-linecap="butt" stroke-width="0.18883674452215599" stroke="#3361e1"></path></g></g></g><defs><clipPath id="SvgjsClipPath1001"><path d=" M 0.9425652164543132 -10.667074102262223 h 10.14347064131012 v 10.417074102262223 h -10.14347064131012 Z"></path></clipPath><clipPath id="a"><path d=" M 0.9052175047599317 -0.25 L 11.122963932248766 -0.25 L 11.122963932248766 -10.705261088376702 L 0.9052175047599317 -10.705261088376702 Z"></path></clipPath><clipPath id="SvgjsClipPath1000"><path d=" M 0.9425652164543132 -10.667074102262223 L 11.086035857764433 -10.667074102262223 L 11.086035857764433 -0.25 L 0.9425652164543132 -0.25 Z"></path></clipPath><clipPath id="b"><path d=" M 0.9052175047599317 -0.25 L 11.122963932248766 -0.25 L 11.122963932248766 -10.705261088376702 L 0.9052175047599317 -10.705261088376702 Z"></path></clipPath></defs></svg>