<svg xmlns="http://www.w3.org/2000/svg" version="1.1" xmlns:xlink="http://www.w3.org/1999/xlink" xmlns:svgjs="http://svgjs.com/svgjs" width="3000" height="2000" preserveAspectRatio="none" viewBox="0 0 3000 2000"><g mask="url(&quot;#SvgjsMask1166&quot;)" fill="none"><rect width="3000" height="2000" x="0" y="0" fill="rgba(255, 255, 255, 1)"></rect><path d="M191.57 180.82L364.78 280.82L364.78 480.82L191.57 580.82L18.36 480.82L18.36 280.82zM537.99 180.82L711.2 280.82L711.2 480.82L537.99 580.82L364.78 480.82L364.78 280.82zM364.78 1080.82L537.99 1180.82L537.99 1380.82L364.78 1480.82L191.57 1380.82L191.57 1180.82zM1230.83 1380.82L1404.04 1480.82L1404.04 1680.82L1230.83 1780.82L1057.62 1680.82L1057.62 1480.82zM1230.83 1980.82L1404.04 2080.82L1404.04 2280.82L1230.83 2380.82L1057.62 2280.82L1057.62 2080.82zM1577.25 780.82L1750.46 880.82L1750.46 1080.82L1577.25 1180.82L1404.04 1080.82L1404.04 880.82zM2616.51 780.82L2789.72 880.82L2789.72 1080.82L2616.51 1180.82L2443.3 1080.82L2443.3 880.82zM2443.3 1080.82L2616.51 1180.82L2616.51 1380.82L2443.3 1480.82L2270.09 1380.82L2270.09 1180.82zM2616.51 1380.82L2789.72 1480.82L2789.72 1680.82L2616.51 1780.82L2443.3 1680.82L2443.3 1480.82z" stroke="#03305d" stroke-width="2"></path><path d="M171.57 180.82 a20 20 0 1 0 40 0 a20 20 0 1 0 -40 0zM344.78 280.82 a20 20 0 1 0 40 0 a20 20 0 1 0 -40 0zM344.78 480.82 a20 20 0 1 0 40 0 a20 20 0 1 0 -40 0zM171.57 580.82 a20 20 0 1 0 40 0 a20 20 0 1 0 -40 0zM-1.64 480.82 a20 20 0 1 0 40 0 a20 20 0 1 0 -40 0zM-1.64 280.82 a20 20 0 1 0 40 0 a20 20 0 1 0 -40 0zM517.99 180.82 a20 20 0 1 0 40 0 a20 20 0 1 0 -40 0zM691.2 280.82 a20 20 0 1 0 40 0 a20 20 0 1 0 -40 0zM691.2 480.82 a20 20 0 1 0 40 0 a20 20 0 1 0 -40 0zM517.99 580.82 a20 20 0 1 0 40 0 a20 20 0 1 0 -40 0zM344.78 1080.82 a20 20 0 1 0 40 0 a20 20 0 1 0 -40 0zM517.99 1180.82 a20 20 0 1 0 40 0 a20 20 0 1 0 -40 0zM517.99 1380.82 a20 20 0 1 0 40 0 a20 20 0 1 0 -40 0zM344.78 1480.82 a20 20 0 1 0 40 0 a20 20 0 1 0 -40 0zM171.57 1380.82 a20 20 0 1 0 40 0 a20 20 0 1 0 -40 0zM171.57 1180.82 a20 20 0 1 0 40 0 a20 20 0 1 0 -40 0zM1210.83 1380.82 a20 20 0 1 0 40 0 a20 20 0 1 0 -40 0zM1384.04 1480.82 a20 20 0 1 0 40 0 a20 20 0 1 0 -40 0zM1384.04 1680.82 a20 20 0 1 0 40 0 a20 20 0 1 0 -40 0zM1210.83 1780.82 a20 20 0 1 0 40 0 a20 20 0 1 0 -40 0zM1037.62 1680.82 a20 20 0 1 0 40 0 a20 20 0 1 0 -40 0zM1037.62 1480.82 a20 20 0 1 0 40 0 a20 20 0 1 0 -40 0zM1210.83 1980.82 a20 20 0 1 0 40 0 a20 20 0 1 0 -40 0zM1384.04 2080.82 a20 20 0 1 0 40 0 a20 20 0 1 0 -40 0zM1384.04 2280.82 a20 20 0 1 0 40 0 a20 20 0 1 0 -40 0zM1210.83 2380.82 a20 20 0 1 0 40 0 a20 20 0 1 0 -40 0zM1037.62 2280.82 a20 20 0 1 0 40 0 a20 20 0 1 0 -40 0zM1037.62 2080.82 a20 20 0 1 0 40 0 a20 20 0 1 0 -40 0zM1557.25 780.82 a20 20 0 1 0 40 0 a20 20 0 1 0 -40 0zM1730.46 880.82 a20 20 0 1 0 40 0 a20 20 0 1 0 -40 0zM1730.46 1080.82 a20 20 0 1 0 40 0 a20 20 0 1 0 -40 0zM1557.25 1180.82 a20 20 0 1 0 40 0 a20 20 0 1 0 -40 0zM1384.04 1080.82 a20 20 0 1 0 40 0 a20 20 0 1 0 -40 0zM1384.04 880.82 a20 20 0 1 0 40 0 a20 20 0 1 0 -40 0zM2596.51 780.82 a20 20 0 1 0 40 0 a20 20 0 1 0 -40 0zM2769.72 880.82 a20 20 0 1 0 40 0 a20 20 0 1 0 -40 0zM2769.72 1080.82 a20 20 0 1 0 40 0 a20 20 0 1 0 -40 0zM2596.51 1180.82 a20 20 0 1 0 40 0 a20 20 0 1 0 -40 0zM2423.3 1080.82 a20 20 0 1 0 40 0 a20 20 0 1 0 -40 0zM2423.3 880.82 a20 20 0 1 0 40 0 a20 20 0 1 0 -40 0zM2596.51 1380.82 a20 20 0 1 0 40 0 a20 20 0 1 0 -40 0zM2423.3 1480.82 a20 20 0 1 0 40 0 a20 20 0 1 0 -40 0zM2250.09 1380.82 a20 20 0 1 0 40 0 a20 20 0 1 0 -40 0zM2250.09 1180.82 a20 20 0 1 0 40 0 a20 20 0 1 0 -40 0zM2769.72 1480.82 a20 20 0 1 0 40 0 a20 20 0 1 0 -40 0zM2769.72 1680.82 a20 20 0 1 0 40 0 a20 20 0 1 0 -40 0zM2596.51 1780.82 a20 20 0 1 0 40 0 a20 20 0 1 0 -40 0zM2423.3 1680.82 a20 20 0 1 0 40 0 a20 20 0 1 0 -40 0z" fill="#03305d"></path><path d="M105.92 70.02L170.88 107.52L170.88 182.52L105.92 220.02L40.97 182.52L40.97 107.52zM105.92 745.02L170.88 782.52L170.88 857.52L105.92 895.02L40.97 857.52L40.97 782.52zM40.97 857.52L105.92 895.02L105.92 970.02L40.97 1007.52L-23.98 970.02L-23.98 895.02zM105.92 970.02L170.88 1007.52L170.88 1082.52L105.92 1120.02L40.97 1082.52L40.97 1007.52zM40.97 1532.52L105.92 1570.02L105.92 1645.02L40.97 1682.52L-23.98 1645.02L-23.98 1570.02zM105.92 1645.02L170.88 1682.52L170.88 1757.52L105.92 1795.02L40.97 1757.52L40.97 1682.52zM235.83 70.02L300.78 107.52L300.78 182.52L235.83 220.02L170.88 182.52L170.88 107.52zM170.88 407.52L235.83 445.02L235.83 520.02L170.88 557.52L105.92 520.02L105.92 445.02zM235.83 745.02L300.78 782.52L300.78 857.52L235.83 895.02L170.88 857.52L170.88 782.52zM170.88 1082.52L235.83 1120.02L235.83 1195.02L170.88 1232.52L105.92 1195.02L105.92 1120.02zM170.88 1757.52L235.83 1795.02L235.83 1870.02L170.88 1907.52L105.92 1870.02L105.92 1795.02zM300.78 1082.52L365.74 1120.02L365.74 1195.02L300.78 1232.52L235.83 1195.02L235.83 1120.02zM300.78 1307.52L365.74 1345.02L365.74 1420.02L300.78 1457.52L235.83 1420.02L235.83 1345.02zM430.69 1082.52L495.65 1120.02L495.65 1195.02L430.69 1232.52L365.74 1195.02L365.74 1120.02zM495.65 1195.02L560.6 1232.52L560.6 1307.52L495.65 1345.02L430.69 1307.52L430.69 1232.52zM430.69 1307.52L495.65 1345.02L495.65 1420.02L430.69 1457.52L365.74 1420.02L365.74 1345.02zM495.65 1870.02L560.6 1907.52L560.6 1982.52L495.65 2020.02L430.69 1982.52L430.69 1907.52zM625.55 70.02L690.51 107.52L690.51 182.52L625.55 220.02L560.6 182.52L560.6 107.52zM560.6 632.52L625.55 670.02L625.55 745.02L560.6 782.52L495.65 745.02L495.65 670.02zM625.55 745.02L690.51 782.52L690.51 857.52L625.55 895.02L560.6 857.52L560.6 782.52zM560.6 1082.52L625.55 1120.02L625.55 1195.02L560.6 1232.52L495.65 1195.02L495.65 1120.02zM560.6 1532.52L625.55 1570.02L625.55 1645.02L560.6 1682.52L495.65 1645.02L495.65 1570.02zM625.55 1870.02L690.51 1907.52L690.51 1982.52L625.55 2020.02L560.6 1982.52L560.6 1907.52zM755.46 70.02L820.42 107.52L820.42 182.52L755.46 220.02L690.51 182.52L690.51 107.52zM755.46 295.02L820.42 332.52L820.42 407.52L755.46 445.02L690.51 407.52L690.51 332.52zM690.51 407.52L755.46 445.02L755.46 520.02L690.51 557.52L625.55 520.02L625.55 445.02zM690.51 632.52L755.46 670.02L755.46 745.02L690.51 782.52L625.55 745.02L625.55 670.02zM755.46 745.02L820.42 782.52L820.42 857.52L755.46 895.02L690.51 857.52L690.51 782.52zM690.51 857.52L755.46 895.02L755.46 970.02L690.51 1007.52L625.55 970.02L625.55 895.02zM755.46 970.02L820.42 1007.52L820.42 1082.52L755.46 1120.02L690.51 1082.52L690.51 1007.52zM690.51 1307.52L755.46 1345.02L755.46 1420.02L690.51 1457.52L625.55 1420.02L625.55 1345.02zM690.51 1757.52L755.46 1795.02L755.46 1870.02L690.51 1907.52L625.55 1870.02L625.55 1795.02zM885.37 70.02L950.32 107.52L950.32 182.52L885.37 220.02L820.41 182.52L820.41 107.52zM820.41 857.52L885.37 895.02L885.37 970.02L820.41 1007.52L755.46 970.02L755.46 895.02zM885.37 1420.02L950.32 1457.52L950.32 1532.52L885.37 1570.02L820.41 1532.52L820.41 1457.52zM885.37 1870.02L950.32 1907.52L950.32 1982.52L885.37 2020.02L820.41 1982.52L820.41 1907.52zM950.32 182.52L1015.28 220.02L1015.28 295.02L950.32 332.52L885.37 295.02L885.37 220.02zM1015.28 970.02L1080.23 1007.52L1080.23 1082.52L1015.28 1120.02L950.32 1082.52L950.32 1007.52zM950.32 1082.52L1015.28 1120.02L1015.28 1195.02L950.32 1232.52L885.37 1195.02L885.37 1120.02zM1015.28 1645.02L1080.23 1682.52L1080.23 1757.52L1015.28 1795.02L950.32 1757.52L950.32 1682.52zM950.32 1757.52L1015.28 1795.02L1015.28 1870.02L950.32 1907.52L885.37 1870.02L885.37 1795.02zM1015.28 1870.02L1080.23 1907.52L1080.23 1982.52L1015.28 2020.02L950.32 1982.52L950.32 1907.52zM1080.23 182.52L1145.18 220.02L1145.18 295.02L1080.23 332.52L1015.28 295.02L1015.28 220.02zM1145.18 295.02L1210.14 332.52L1210.14 407.52L1145.18 445.02L1080.23 407.52L1080.23 332.52zM1080.23 632.52L1145.18 670.02L1145.18 745.02L1080.23 782.52L1015.28 745.02L1015.28 670.02zM1145.18 970.02L1210.14 1007.52L1210.14 1082.52L1145.18 1120.02L1080.23 1082.52L1080.23 1007.52zM1145.18 1195.02L1210.14 1232.52L1210.14 1307.52L1145.18 1345.02L1080.23 1307.52L1080.23 1232.52zM1080.23 1532.52L1145.18 1570.02L1145.18 1645.02L1080.23 1682.52L1015.28 1645.02L1015.28 1570.02zM1145.18 1645.02L1210.14 1682.52L1210.14 1757.52L1145.18 1795.02L1080.23 1757.52L1080.23 1682.52zM1275.09 295.02L1340.04 332.52L1340.04 407.52L1275.09 445.02L1210.14 407.52L1210.14 332.52zM1275.09 520.02L1340.04 557.52L1340.04 632.52L1275.09 670.02L1210.14 632.52L1210.14 557.52zM1275.09 1195.02L1340.04 1232.52L1340.04 1307.52L1275.09 1345.02L1210.14 1307.52L1210.14 1232.52zM1275.09 1870.02L1340.04 1907.52L1340.04 1982.52L1275.09 2020.02L1210.14 1982.52L1210.14 1907.52zM1340.05 632.52L1405 670.02L1405 745.02L1340.05 782.52L1275.09 745.02L1275.09 670.02zM1405 745.02L1469.95 782.52L1469.95 857.52L1405 895.02L1340.05 857.52L1340.05 782.52zM1340.05 1532.52L1405 1570.02L1405 1645.02L1340.05 1682.52L1275.09 1645.02L1275.09 1570.02zM1405 1645.02L1469.95 1682.52L1469.95 1757.52L1405 1795.02L1340.05 1757.52L1340.05 1682.52zM1340.05 1757.52L1405 1795.02L1405 1870.02L1340.05 1907.52L1275.09 1870.02L1275.09 1795.02zM1340.05 1982.52L1405 2020.02L1405 2095.02L1340.05 2132.52L1275.09 2095.02L1275.09 2020.02zM1469.95 407.52L1534.91 445.02L1534.91 520.02L1469.95 557.52L1405 520.02L1405 445.02zM1469.95 857.52L1534.91 895.02L1534.91 970.02L1469.95 1007.52L1405 970.02L1405 895.02zM1534.91 1420.02L1599.86 1457.52L1599.86 1532.52L1534.91 1570.02L1469.95 1532.52L1469.95 1457.52zM1469.95 1532.52L1534.91 1570.02L1534.91 1645.02L1469.95 1682.52L1405 1645.02L1405 1570.02zM1469.95 1757.52L1534.91 1795.02L1534.91 1870.02L1469.95 1907.52L1405 1870.02L1405 1795.02zM1599.86 182.52L1664.81 220.02L1664.81 295.02L1599.86 332.52L1534.91 295.02L1534.91 220.02zM1664.81 295.02L1729.77 332.52L1729.77 407.52L1664.81 445.02L1599.86 407.52L1599.86 332.52zM1664.81 520.02L1729.77 557.52L1729.77 632.52L1664.81 670.02L1599.86 632.52L1599.86 557.52zM1664.81 1420.02L1729.77 1457.52L1729.77 1532.52L1664.81 1570.02L1599.86 1532.52L1599.86 1457.52zM1599.86 1757.52L1664.81 1795.02L1664.81 1870.02L1599.86 1907.52L1534.91 1870.02L1534.91 1795.02zM1729.77 -42.48L1794.72 -4.98L1794.72 70.02L1729.77 107.52L1664.81 70.02L1664.81 -4.98zM1729.77 857.52L1794.72 895.02L1794.72 970.02L1729.77 1007.52L1664.81 970.02L1664.81 895.02zM1794.72 1195.02L1859.67 1232.52L1859.67 1307.52L1794.72 1345.02L1729.77 1307.52L1729.77 1232.52zM1794.72 1420.02L1859.67 1457.52L1859.67 1532.52L1794.72 1570.02L1729.77 1532.52L1729.77 1457.52zM1729.77 1757.52L1794.72 1795.02L1794.72 1870.02L1729.77 1907.52L1664.81 1870.02L1664.81 1795.02zM1729.77 1982.52L1794.72 2020.02L1794.72 2095.02L1729.77 2132.52L1664.81 2095.02L1664.81 2020.02zM1859.67 182.52L1924.63 220.02L1924.63 295.02L1859.67 332.52L1794.72 295.02L1794.72 220.02zM1859.67 632.52L1924.63 670.02L1924.63 745.02L1859.67 782.52L1794.72 745.02L1794.72 670.02zM1859.67 857.52L1924.63 895.02L1924.63 970.02L1859.67 1007.52L1794.72 970.02L1794.72 895.02zM1859.67 1307.52L1924.63 1345.02L1924.63 1420.02L1859.67 1457.52L1794.72 1420.02L1794.72 1345.02zM1924.63 1420.02L1989.58 1457.52L1989.58 1532.52L1924.63 1570.02L1859.67 1532.52L1859.67 1457.52zM1924.63 1645.02L1989.58 1682.52L1989.58 1757.52L1924.63 1795.02L1859.67 1757.52L1859.67 1682.52zM1989.58 407.52L2054.54 445.02L2054.54 520.02L1989.58 557.52L1924.63 520.02L1924.63 445.02zM2054.54 1195.02L2119.49 1232.52L2119.49 1307.52L2054.54 1345.02L1989.58 1307.52L1989.58 1232.52zM2054.54 1420.02L2119.49 1457.52L2119.49 1532.52L2054.54 1570.02L1989.58 1532.52L1989.58 1457.52zM2054.54 1645.02L2119.49 1682.52L2119.49 1757.52L2054.54 1795.02L1989.58 1757.52L1989.58 1682.52zM2119.49 -42.48L2184.44 -4.98L2184.44 70.02L2119.49 107.52L2054.54 70.02L2054.54 -4.98zM2184.44 295.02L2249.4 332.52L2249.4 407.52L2184.44 445.02L2119.49 407.52L2119.49 332.52zM2119.49 1532.52L2184.44 1570.02L2184.44 1645.02L2119.49 1682.52L2054.54 1645.02L2054.54 1570.02zM2119.49 1757.52L2184.44 1795.02L2184.44 1870.02L2119.49 1907.52L2054.54 1870.02L2054.54 1795.02zM2119.49 1982.52L2184.44 2020.02L2184.44 2095.02L2119.49 2132.52L2054.54 2095.02L2054.54 2020.02zM2249.4 -42.48L2314.35 -4.98L2314.35 70.02L2249.4 107.52L2184.44 70.02L2184.44 -4.98zM2314.35 295.02L2379.3 332.52L2379.3 407.52L2314.35 445.02L2249.4 407.52L2249.4 332.52zM2314.35 520.02L2379.3 557.52L2379.3 632.52L2314.35 670.02L2249.4 632.52L2249.4 557.52zM2249.4 857.52L2314.35 895.02L2314.35 970.02L2249.4 1007.52L2184.44 970.02L2184.44 895.02zM2314.35 1420.02L2379.3 1457.52L2379.3 1532.52L2314.35 1570.02L2249.4 1532.52L2249.4 1457.52zM2314.35 1645.02L2379.3 1682.52L2379.3 1757.52L2314.35 1795.02L2249.4 1757.52L2249.4 1682.52zM2509.21 -42.48L2574.17 -4.98L2574.17 70.02L2509.21 107.52L2444.26 70.02L2444.26 -4.98zM2574.17 70.02L2639.12 107.52L2639.12 182.52L2574.17 220.02L2509.21 182.52L2509.21 107.52zM2509.21 182.52L2574.17 220.02L2574.17 295.02L2509.21 332.52L2444.26 295.02L2444.26 220.02zM2574.17 520.02L2639.12 557.52L2639.12 632.52L2574.17 670.02L2509.21 632.52L2509.21 557.52zM2574.17 1420.02L2639.12 1457.52L2639.12 1532.52L2574.17 1570.02L2509.21 1532.52L2509.21 1457.52zM2509.21 1532.52L2574.17 1570.02L2574.17 1645.02L2509.21 1682.52L2444.26 1645.02L2444.26 1570.02zM2509.21 1757.52L2574.17 1795.02L2574.17 1870.02L2509.21 1907.52L2444.26 1870.02L2444.26 1795.02zM2509.21 1982.52L2574.17 2020.02L2574.17 2095.02L2509.21 2132.52L2444.26 2095.02L2444.26 2020.02zM2704.07 70.02L2769.03 107.52L2769.03 182.52L2704.07 220.02L2639.12 182.52L2639.12 107.52zM2704.07 745.02L2769.03 782.52L2769.03 857.52L2704.07 895.02L2639.12 857.52L2639.12 782.52zM2704.07 1420.02L2769.03 1457.52L2769.03 1532.52L2704.07 1570.02L2639.12 1532.52L2639.12 1457.52zM2704.07 1645.02L2769.03 1682.52L2769.03 1757.52L2704.07 1795.02L2639.12 1757.52L2639.12 1682.52zM2639.12 1757.52L2704.07 1795.02L2704.07 1870.02L2639.12 1907.52L2574.17 1870.02L2574.17 1795.02zM2769.03 -42.48L2833.98 -4.98L2833.98 70.02L2769.03 107.52L2704.07 70.02L2704.07 -4.98zM2833.98 295.02L2898.93 332.52L2898.93 407.52L2833.98 445.02L2769.03 407.52L2769.03 332.52zM2769.03 407.52L2833.98 445.02L2833.98 520.02L2769.03 557.52L2704.07 520.02L2704.07 445.02zM2833.98 520.02L2898.93 557.52L2898.93 632.52L2833.98 670.02L2769.03 632.52L2769.03 557.52zM2769.03 857.52L2833.98 895.02L2833.98 970.02L2769.03 1007.52L2704.07 970.02L2704.07 895.02zM2833.98 1195.02L2898.93 1232.52L2898.93 1307.52L2833.98 1345.02L2769.03 1307.52L2769.03 1232.52zM2769.03 1307.52L2833.98 1345.02L2833.98 1420.02L2769.03 1457.52L2704.07 1420.02L2704.07 1345.02zM2898.93 407.52L2963.89 445.02L2963.89 520.02L2898.93 557.52L2833.98 520.02L2833.98 445.02zM2898.93 857.52L2963.89 895.02L2963.89 970.02L2898.93 1007.52L2833.98 970.02L2833.98 895.02zM2963.89 1195.02L3028.84 1232.52L3028.84 1307.52L2963.89 1345.02L2898.93 1307.52L2898.93 1232.52zM2963.89 1645.02L3028.84 1682.52L3028.84 1757.52L2963.89 1795.02L2898.93 1757.52L2898.93 1682.52zM2898.93 1757.52L2963.89 1795.02L2963.89 1870.02L2898.93 1907.52L2833.98 1870.02L2833.98 1795.02zM2963.89 1870.02L3028.84 1907.52L3028.84 1982.52L2963.89 2020.02L2898.93 1982.52L2898.93 1907.52zM3028.84 -42.48L3093.8 -4.98L3093.8 70.02L3028.84 107.52L2963.89 70.02L2963.89 -4.98zM3093.8 70.02L3158.75 107.52L3158.75 182.52L3093.8 220.02L3028.84 182.52L3028.84 107.52zM3028.84 407.52L3093.8 445.02L3093.8 520.02L3028.84 557.52L2963.89 520.02L2963.89 445.02zM3028.84 632.52L3093.8 670.02L3093.8 745.02L3028.84 782.52L2963.89 745.02L2963.89 670.02zM3093.8 970.02L3158.75 1007.52L3158.75 1082.52L3093.8 1120.02L3028.84 1082.52L3028.84 1007.52z" stroke="rgba(6, 80, 156, 0.93)" stroke-width="2"></path></g><defs><mask id="SvgjsMask1166"><rect width="3000" height="2000" fill="#ffffff"></rect></mask></defs></svg>